<svg xmlns="http://www.w3.org/2000/svg" width="1200" height="675" viewBox="0 0 1200 675" fill="none">
  <rect width="1200" height="675" rx="40" fill="#FFF6F6"/>
  <rect x="54" y="54" width="1092" height="567" rx="36" fill="#FFFFFF" stroke="#F5D7D7" stroke-width="2"/>
  <rect x="86" y="86" width="1028" height="503" rx="28" fill="#FFF0F0"/>
  <circle cx="986" cy="166" r="174" fill="#FFC9C9"/>
  <circle cx="222" cy="600" r="176" fill="#FFE4E4"/>
  <rect x="132" y="136" width="432" height="48" rx="24" fill="#FFE0E0"/>
  <text x="164" y="167" fill="#C81E1E" font-family="Arial, sans-serif" font-size="20" font-weight="700" letter-spacing="1.5">АРХИТЕКТУРА РЕШЕНИЙ</text>
  <rect x="132" y="232" width="536" height="34" rx="17" fill="#FFD6D6"/>
  <rect x="132" y="284" width="476" height="34" rx="17" fill="#FFC0C0"/>
  <rect x="132" y="336" width="518" height="34" rx="17" fill="#FFE4E4"/>
  <rect x="748" y="212" width="212" height="212" rx="26" fill="#FFFFFF" stroke="#FCA5A5" stroke-width="8"/>
  <rect x="782" y="246" width="144" height="38" rx="10" fill="#FCA5A5"/>
  <rect x="782" y="304" width="90" height="90" rx="14" fill="#FEE2E2" stroke="#DC2626" stroke-width="8"/>
  <rect x="892" y="304" width="34" height="90" rx="10" fill="#DC2626"/>
  <path d="M742 446H964" stroke="#0F172A" stroke-width="14" stroke-linecap="round"/>
  <path d="M1014 214L1048 180" stroke="#C81E1E" stroke-width="12" stroke-linecap="round"/>
  <path d="M1048 214L1014 180" stroke="#C81E1E" stroke-width="12" stroke-linecap="round"/>
</svg>
