<svg xmlns="http://www.w3.org/2000/svg" width="1200" height="675" viewBox="0 0 1200 675" fill="none">
  <rect width="1200" height="675" rx="40" fill="#F8FBF8"/>
  <rect x="54" y="54" width="1092" height="567" rx="36" fill="#FFFFFF" stroke="#D7E8D9" stroke-width="2"/>
  <rect x="86" y="86" width="1028" height="503" rx="28" fill="#EEF9F0"/>
  <circle cx="980" cy="164" r="170" fill="#B6F0C2"/>
  <circle cx="240" cy="600" r="170" fill="#DFF9E5"/>
  <rect x="132" y="136" width="276" height="48" rx="24" fill="#DCFCE7"/>
  <text x="164" y="167" fill="#15803D" font-family="Arial, sans-serif" font-size="22" font-weight="700" letter-spacing="3">MANAGEMENT</text>
  <rect x="132" y="230" width="564" height="34" rx="17" fill="#C7F3D0"/>
  <rect x="132" y="282" width="490" height="34" rx="17" fill="#A8E8B8"/>
  <rect x="132" y="334" width="526" height="34" rx="17" fill="#D9F8DF"/>
  <rect x="132" y="426" width="392" height="18" rx="9" fill="#22C55E"/>
  <rect x="132" y="468" width="296" height="18" rx="9" fill="#4ADE80"/>
  <rect x="724" y="202" width="286" height="286" rx="42" fill="#F8FFF9" stroke="#BBF7D0" stroke-width="3"/>
  <rect x="780" y="258" width="174" height="38" rx="12" fill="#22C55E" fill-opacity="0.2"/>
  <rect x="780" y="320" width="174" height="38" rx="12" fill="#22C55E" fill-opacity="0.32"/>
  <rect x="780" y="382" width="174" height="38" rx="12" fill="#22C55E" fill-opacity="0.5"/>
  <circle cx="736" cy="277" r="16" fill="#22C55E"/>
  <circle cx="736" cy="339" r="16" fill="#16A34A"/>
  <circle cx="736" cy="401" r="16" fill="#15803D"/>
  <text x="132" y="565" fill="#0F172A" font-family="Georgia, serif" font-size="56" font-weight="700">Journal DM</text>
</svg>
