<svg xmlns="http://www.w3.org/2000/svg" width="1200" height="675" viewBox="0 0 1200 675" fill="none">
  <rect width="1200" height="675" rx="40" fill="#FBF9FF"/>
  <rect x="54" y="54" width="1092" height="567" rx="36" fill="#FFFFFF" stroke="#E6DBF5" stroke-width="2"/>
  <rect x="86" y="86" width="1028" height="503" rx="28" fill="#F5F0FF"/>
  <circle cx="980" cy="162" r="174" fill="#D9C9FF"/>
  <circle cx="222" cy="598" r="178" fill="#EEE6FF"/>
  <rect x="132" y="136" width="228" height="48" rx="24" fill="#EFE7FF"/>
  <text x="164" y="167" fill="#6D28D9" font-family="Arial, sans-serif" font-size="22" font-weight="700" letter-spacing="3">THINKING</text>
  <rect x="132" y="230" width="514" height="34" rx="17" fill="#E2D4FF"/>
  <rect x="132" y="282" width="448" height="34" rx="17" fill="#CDB4FF"/>
  <rect x="132" y="334" width="492" height="34" rx="17" fill="#F0E8FF"/>
  <path d="M802 239C802 205 830 177 864 177C898 177 926 205 926 239C926 261 914 280 896 291V314H832V291C814 280 802 261 802 239Z" fill="#8B5CF6" fill-opacity="0.2" stroke="#6D28D9" stroke-width="6"/>
  <rect x="838" y="324" width="52" height="16" rx="8" fill="#6D28D9"/>
  <rect x="826" y="350" width="76" height="16" rx="8" fill="#8B5CF6"/>
  <rect x="816" y="376" width="96" height="16" rx="8" fill="#A78BFA"/>
  <path d="M782 202L756 178" stroke="#6D28D9" stroke-width="8" stroke-linecap="round"/>
  <path d="M940 202L966 178" stroke="#6D28D9" stroke-width="8" stroke-linecap="round"/>
  <path d="M864 156V120" stroke="#6D28D9" stroke-width="8" stroke-linecap="round"/>
  <text x="132" y="565" fill="#0F172A" font-family="Georgia, serif" font-size="56" font-weight="700">Journal DM</text>
</svg>
