<svg xmlns="http://www.w3.org/2000/svg" width="1200" height="675" viewBox="0 0 1200 675" fill="none">
  <rect width="1200" height="675" rx="40" fill="#F7FAFC"/>
  <rect x="54" y="54" width="1092" height="567" rx="36" fill="#FFFFFF" stroke="#D9E7F2" stroke-width="2"/>
  <rect x="86" y="86" width="1028" height="503" rx="28" fill="#EAF7FF"/>
  <circle cx="994" cy="176" r="168" fill="#A5E1FF"/>
  <circle cx="210" cy="600" r="182" fill="#D4F1FF"/>
  <rect x="132" y="136" width="198" height="48" rx="24" fill="#0F172A"/>
  <rect x="132" y="230" width="534" height="34" rx="17" fill="#B7E8FF"/>
  <rect x="132" y="282" width="458" height="34" rx="17" fill="#91DCF8"/>
  <rect x="132" y="334" width="514" height="34" rx="17" fill="#C9F2FF"/>
  <rect x="132" y="424" width="338" height="18" rx="9" fill="#38BDF8"/>
  <rect x="132" y="466" width="282" height="18" rx="9" fill="#7DD3FC"/>
  <rect x="734" y="218" width="264" height="264" rx="36" fill="#F8FEFF" stroke="#BAE6FD" stroke-width="3"/>
  <path d="M826 404L902 326" stroke="#0F172A" stroke-width="14" stroke-linecap="round"/>
  <path d="M902 326H854" stroke="#0F172A" stroke-width="14" stroke-linecap="round"/>
  <path d="M902 326V374" stroke="#0F172A" stroke-width="14" stroke-linecap="round"/>
  <circle cx="826" cy="404" r="58" fill="#38BDF8" fill-opacity="0.18"/>
  <rect x="132" y="136" width="198" height="48" rx="24" fill="#E0F2FE"/>
  <text x="165" y="167" fill="#0369A1" font-family="Arial, sans-serif" font-size="22" font-weight="700" letter-spacing="3">CAREER</text>
  <text x="132" y="565" fill="#0F172A" font-family="Georgia, serif" font-size="56" font-weight="700">Journal DM</text>
</svg>
