<svg xmlns="http://www.w3.org/2000/svg" width="1200" height="675" viewBox="0 0 1200 675" fill="none">
  <rect width="1200" height="675" rx="40" fill="#FFF9F4"/>
  <rect x="54" y="54" width="1092" height="567" rx="36" fill="#FFFFFF" stroke="#F1DEC8" stroke-width="2"/>
  <rect x="86" y="86" width="1028" height="503" rx="28" fill="#FFF2E6"/>
  <circle cx="980" cy="168" r="170" fill="#FFD7B0"/>
  <circle cx="230" cy="602" r="178" fill="#FFE7CF"/>
  <rect x="132" y="136" width="214" height="48" rx="24" fill="#FFE8D2"/>
  <text x="164" y="167" fill="#C2410C" font-family="Arial, sans-serif" font-size="22" font-weight="700" letter-spacing="3">PROJECTS</text>
  <rect x="132" y="230" width="534" height="34" rx="17" fill="#FFDAB8"/>
  <rect x="132" y="282" width="456" height="34" rx="17" fill="#FEC89A"/>
  <rect x="132" y="334" width="510" height="34" rx="17" fill="#FFE9D3"/>
  <rect x="744" y="198" width="256" height="256" rx="38" fill="#FFF9F5" stroke="#FED7AA" stroke-width="3"/>
  <rect x="788" y="242" width="168" height="28" rx="14" fill="#F97316" fill-opacity="0.18"/>
  <rect x="788" y="288" width="118" height="28" rx="14" fill="#FB923C" fill-opacity="0.3"/>
  <rect x="788" y="334" width="146" height="28" rx="14" fill="#FDBA74" fill-opacity="0.45"/>
  <rect x="788" y="380" width="96" height="28" rx="14" fill="#FED7AA" fill-opacity="0.75"/>
  <path d="M728 256L760 256" stroke="#C2410C" stroke-width="10" stroke-linecap="round"/>
  <path d="M728 302L760 302" stroke="#C2410C" stroke-width="10" stroke-linecap="round"/>
  <path d="M728 348L760 348" stroke="#C2410C" stroke-width="10" stroke-linecap="round"/>
  <path d="M728 394L760 394" stroke="#C2410C" stroke-width="10" stroke-linecap="round"/>
  <text x="132" y="565" fill="#0F172A" font-family="Georgia, serif" font-size="56" font-weight="700">Journal DM</text>
</svg>
